<?xml version="1.0" standalone="no"?>
<!DOCTYPE svg PUBLIC "-//W3C//DTD SVG 20010904//EN"
 "http://www.w3.org/TR/2001/REC-SVG-20010904/DTD/svg10.dtd">
<svg version="1.0" xmlns="http://www.w3.org/2000/svg"
 width="64.000000pt" height="64.000000pt" viewBox="0 0 64.000000 64.000000"
 preserveAspectRatio="xMidYMid meet">

<g transform="translate(0.000000,64.000000) scale(0.100000,-0.100000)"
fill="#000000" stroke="none">
<path d="M253 620 c-92 -19 -173 -83 -220 -173 -23 -44 -28 -64 -28 -132 0
-93 21 -148 80 -213 36 -41 130 -96 146 -86 5 3 9 18 9 35 0 26 -3 29 -33 29
-34 0 -46 9 -92 66 -45 56 -22 62 36 9 43 -39 60 -43 83 -19 25 25 19 41 -18
48 -22 4 -46 20 -65 42 -27 30 -31 42 -31 92 0 32 5 63 11 69 7 7 13 32 14 57
1 25 4 48 7 52 3 3 22 -2 42 -10 52 -22 200 -22 250 -1 21 9 41 14 44 11 3 -4
6 -25 7 -49 1 -23 8 -53 15 -66 7 -15 10 -45 8 -78 -6 -64 -40 -106 -97 -121
-24 -6 -35 -13 -32 -23 3 -8 7 -43 10 -79 5 -58 8 -65 26 -62 63 11 152 91
189 171 32 71 29 189 -7 258 -69 132 -213 202 -354 173z"/>
</g>
</svg>
