<?xml version="1.0" standalone="no"?>
<!DOCTYPE svg PUBLIC "-//W3C//DTD SVG 20010904//EN"
 "http://www.w3.org/TR/2001/REC-SVG-20010904/DTD/svg10.dtd">
<svg version="1.0" xmlns="http://www.w3.org/2000/svg"
 width="64.000000pt" height="64.000000pt" viewBox="0 0 64.000000 64.000000"
 preserveAspectRatio="xMidYMid meet">

<g transform="translate(0.000000,64.000000) scale(0.100000,-0.100000)"
fill="#000000" stroke="none">
<path d="M245 631 c-92 -24 -173 -90 -215 -176 -33 -69 -34 -199 -2 -265 35
-71 75 -114 144 -151 58 -31 70 -34 148 -33 72 0 93 4 136 26 75 40 107 70
145 140 31 58 34 70 34 148 0 78 -3 90 -34 148 -57 104 -144 160 -260 167 -36
2 -79 1 -96 -4z m-17 -163 c3 -22 -2 -30 -24 -40 -23 -11 -28 -10 -45 11 -27
33 -9 63 34 59 27 -2 33 -8 35 -30z m226 -82 c42 -18 56 -55 56 -152 l0 -74
-40 0 -40 0 0 69 c0 88 -5 101 -40 101 -35 0 -40 -13 -40 -101 l0 -69 -40 0
-40 0 0 115 0 115 40 0 c22 0 40 -5 40 -10 0 -6 12 -4 28 4 34 19 35 19 76 2z
m-224 -111 l0 -115 -40 0 -40 0 0 115 0 115 40 0 40 0 0 -115z"/>
</g>
</svg>
