<?xml version="1.0" standalone="no"?>
<!DOCTYPE svg PUBLIC "-//W3C//DTD SVG 20010904//EN"
 "http://www.w3.org/TR/2001/REC-SVG-20010904/DTD/svg10.dtd">
<svg version="1.0" xmlns="http://www.w3.org/2000/svg"
 width="64.000000pt" height="64.000000pt" viewBox="0 0 64.000000 64.000000"
 preserveAspectRatio="xMidYMid meet">

<g transform="translate(0.000000,64.000000) scale(0.100000,-0.100000)"
fill="#000000" stroke="none">
<path d="M253 630 c-241 -50 -332 -359 -157 -534 62 -61 133 -90 229 -90 95 0
155 24 220 89 65 65 89 125 89 220 0 96 -29 167 -90 229 -71 71 -191 107 -291
86z m167 -175 l100 -65 0 -69 0 -70 -100 -65 -100 -66 -95 63 -95 62 0 75 0
75 93 62 c50 34 93 62 94 62 1 1 47 -28 103 -64z"/>
<path d="M235 424 c-27 -19 -51 -38 -53 -42 -1 -4 10 -15 26 -24 26 -16 30
-16 60 4 27 17 32 26 32 59 0 21 -3 39 -7 38 -5 0 -30 -16 -58 -35z"/>
<path d="M340 423 c0 -32 6 -41 33 -59 32 -21 35 -21 60 -6 15 9 27 19 27 23
0 6 -106 79 -115 79 -3 0 -5 -17 -5 -37z"/>
<path d="M160 320 c0 -28 2 -29 20 -18 11 7 20 15 20 18 0 3 -9 11 -20 18 -18
11 -20 10 -20 -18z"/>
<path d="M275 330 c-7 -12 2 -30 16 -30 5 0 9 9 9 20 0 21 -15 27 -25 10z"/>
<path d="M340 320 c0 -13 5 -18 15 -14 8 4 15 10 15 14 0 4 -7 10 -15 14 -10
4 -15 -1 -15 -14z"/>
<path d="M454 329 c-3 -6 1 -18 10 -27 15 -15 16 -14 16 11 0 27 -13 36 -26
16z"/>
<path d="M208 282 c-16 -9 -28 -19 -28 -23 0 -7 106 -79 115 -79 4 0 5 18 3
40 -2 33 -9 45 -33 60 -28 18 -32 18 -57 2z"/>
<path d="M373 276 c-27 -17 -33 -27 -33 -58 0 -21 2 -38 5 -38 10 0 115 73
115 79 0 4 -12 14 -27 23 -26 15 -30 14 -60 -6z"/>
</g>
</svg>
