<?xml version="1.0" standalone="no"?>
<!DOCTYPE svg PUBLIC "-//W3C//DTD SVG 20010904//EN"
 "http://www.w3.org/TR/2001/REC-SVG-20010904/DTD/svg10.dtd">
<svg version="1.0" xmlns="http://www.w3.org/2000/svg"
 width="64.000000pt" height="64.000000pt" viewBox="0 0 64.000000 64.000000"
 preserveAspectRatio="xMidYMid meet">

<g transform="translate(0.000000,64.000000) scale(0.100000,-0.100000)"
fill="#000000" stroke="none">
<path d="M307 634 c-4 -4 -7 -98 -7 -208 l0 -200 -44 43 c-32 32 -49 42 -62
37 -15 -6 -6 -19 54 -79 l72 -72 65 65 c36 35 65 70 65 77 0 24 -26 13 -65
-28 l-40 -40 -5 202 c-5 190 -10 225 -33 203z"/>
<path d="M192 523 c-132 -72 -184 -232 -119 -366 43 -87 124 -144 221 -154
180 -18 334 153 296 330 -19 92 -110 195 -176 200 -39 3 -40 -18 -2 -34 112
-46 172 -180 134 -297 -57 -169 -273 -217 -399 -87 -113 116 -70 322 81 384
33 14 38 34 11 39 -8 1 -29 -6 -47 -15z"/>
</g>
</svg>
